<svg fill="none" height="32" viewBox="0 0 32 32" width="32" xmlns="http://www.w3.org/2000/svg" xmlns:xlink="http://www.w3.org/1999/xlink"><clipPath id="a"><path d="m0 0h32v32h-32z"/></clipPath><g clip-path="url(#a)"><path d="m12.19 9.27399c.2319-.12398 1.5002-.18598 3.805-.18598h4.7887c5.4527.02067 8.2106.10333 8.2739.24798.0843.10332.1265 2.35231.1265 6.74351s-.0738 6.5989-.2214 6.7435c-.1265.1447-.6991.217-1.711.217-.9521 0-1.5529-.0516-1.8058-.155-.1898-.1033-.2846-.6406-.2846-1.6152v-1.4913c-1.8164.0206-4.5287.031-8.1334.031s-6.3029.0103-8.10176.031l-1.11022 1.3983c-.80455.9746-1.29993 1.5016-1.48965 1.5842-.25296.124-.84672.186-1.77424.186h-.73078c-1.43695-.0206-2.15719-.1136-2.15719-.279 0-.2066 1.68641-2.4659 5.0557-6.7745 3.37284-4.3085 5.19624-6.53685 5.47024-6.68151zm12.8413 7.11891v-3.9469h-10.3363c-.9942 1.2433-2.0201 2.559-3.0741 3.9469z" fill="#416388"/></g></svg>